<?xml version="1.0" encoding="UTF-8"?>
<svg width="700pt" height="700pt" version="1.1" viewBox="0 0 700 700" xmlns="http://www.w3.org/2000/svg" xmlns:xlink="http://www.w3.org/1999/xlink">
 <defs>
  <symbol id="m" overflow="visible">
   <path d="m29.312-1.75c-1.5117 0.78125-3.0898 1.3711-4.7344 1.7656-1.6367 0.40625-3.3398 0.60938-5.1094 0.60938-5.3125 0-9.5273-1.4844-12.641-4.4531-3.1055-2.9688-4.6562-7-4.6562-12.094s1.5508-9.125 4.6562-12.094c3.1133-2.9688 7.3281-4.4531 12.641-4.4531 1.7695 0 3.4727 0.19922 5.1094 0.59375 1.6445 0.39844 3.2227 0.99219 4.7344 1.7812v6.5938c-1.5312-1.0391-3.0391-1.8008-4.5156-2.2812-1.4805-0.48828-3.0391-0.73438-4.6719-0.73438-2.9375 0-5.2461 0.94531-6.9219 2.8281-1.6797 1.875-2.5156 4.4648-2.5156 7.7656 0 3.293 0.83594 5.8828 2.5156 7.7656 1.6758 1.875 3.9844 2.8125 6.9219 2.8125 1.6328 0 3.1914-0.23828 4.6719-0.71875 1.4766-0.48828 2.9844-1.2539 4.5156-2.2969z"/>
  </symbol>
  <symbol id="h" overflow="visible">
   <path d="m21.453-17.406c-0.67969-0.3125-1.3516-0.53906-2.0156-0.6875-0.65625-0.15625-1.3203-0.23438-1.9844-0.23438-1.9688 0-3.4844 0.63281-4.5469 1.8906-1.0547 1.2617-1.5781 3.0703-1.5781 5.4219v11.016h-7.6562v-23.922h7.6562v3.9219c0.97656-1.5625 2.1016-2.7031 3.375-3.4219 1.2812-0.71875 2.8125-1.0781 4.5938-1.0781 0.25 0 0.52344 0.011719 0.82812 0.03125 0.30078 0.023438 0.73438 0.070312 1.2969 0.14062z"/>
  </symbol>
  <symbol id="c" overflow="visible">
   <path d="m27.562-12.031v2.1875h-17.891c0.1875 1.793 0.83203 3.1367 1.9375 4.0312 1.1133 0.89844 2.6719 1.3438 4.6719 1.3438 1.6016 0 3.25-0.23438 4.9375-0.70312 1.6875-0.47656 3.4219-1.2031 5.2031-2.1719v5.8906c-1.8047 0.6875-3.6094 1.2031-5.4219 1.5469-1.8125 0.35156-3.6211 0.53125-5.4219 0.53125-4.3359 0-7.7031-1.0977-10.109-3.2969-2.3984-2.207-3.5938-5.2969-3.5938-9.2656 0-3.9062 1.1758-6.9727 3.5312-9.2031 2.3633-2.2383 5.6094-3.3594 9.7344-3.3594 3.7578 0 6.7695 1.1367 9.0312 3.4062 2.2578 2.2617 3.3906 5.2812 3.3906 9.0625zm-7.8594-2.5312c0-1.457-0.42969-2.6289-1.2812-3.5156-0.84375-0.89453-1.9492-1.3438-3.3125-1.3438-1.4922 0-2.6992 0.41797-3.625 1.25-0.91797 0.83594-1.4922 2.0391-1.7188 3.6094z"/>
  </symbol>
  <symbol id="b" overflow="visible">
   <path d="m14.391-10.766c-1.5938 0-2.793 0.27344-3.5938 0.8125-0.80469 0.54297-1.2031 1.3398-1.2031 2.3906 0 0.96875 0.32031 1.7305 0.96875 2.2812 0.64453 0.54297 1.5469 0.8125 2.7031 0.8125 1.4375 0 2.6445-0.51562 3.625-1.5469 0.98828-1.0312 1.4844-2.3203 1.4844-3.875v-0.875zm11.688-2.8906v13.656h-7.7031v-3.5469c-1.0312 1.4492-2.1875 2.5078-3.4688 3.1719s-2.8398 1-4.6719 1c-2.4805 0-4.4961-0.72266-6.0469-2.1719-1.543-1.4453-2.3125-3.3203-2.3125-5.625 0-2.8125 0.96094-4.8672 2.8906-6.1719 1.9375-1.3125 4.9688-1.9688 9.0938-1.9688h4.5156v-0.60938c0-1.207-0.48047-2.0938-1.4375-2.6562-0.94922-0.5625-2.4375-0.84375-4.4688-0.84375-1.6367 0-3.1562 0.16797-4.5625 0.5-1.4062 0.32422-2.7188 0.8125-3.9375 1.4688v-5.8281c1.6445-0.40625 3.2891-0.70703 4.9375-0.90625 1.6562-0.20703 3.3047-0.3125 4.9531-0.3125 4.3203 0 7.4375 0.85547 9.3438 2.5625 1.9141 1.6992 2.875 4.4609 2.875 8.2812z"/>
  </symbol>
  <symbol id="g" overflow="visible">
   <path d="m12.031-30.719v6.7969h7.875v5.4688h-7.875v10.141c0 1.1172 0.21875 1.8711 0.65625 2.2656 0.4375 0.38672 1.3125 0.57812 2.625 0.57812h3.9375v5.4688h-6.5625c-3.0234 0-5.1641-0.62891-6.4219-1.8906-1.2617-1.2578-1.8906-3.3984-1.8906-6.4219v-10.141h-3.7969v-5.4688h3.7969v-6.7969z"/>
  </symbol>
  <symbol id="f" overflow="visible">
   <path d="m19.953-20.422v-12.812h7.6875v33.234h-7.6875v-3.4531c-1.0547 1.4062-2.2148 2.4375-3.4844 3.0938-1.2734 0.65625-2.7422 0.98438-4.4062 0.98438-2.9492 0-5.3711-1.1719-7.2656-3.5156-1.8867-2.3438-2.8281-5.3594-2.8281-9.0469s0.94141-6.7031 2.8281-9.0469c1.8945-2.3438 4.3164-3.5156 7.2656-3.5156 1.6562 0 3.1172 0.33594 4.3906 1 1.2812 0.65625 2.4453 1.6836 3.5 3.0781zm-5.0469 15.484c1.6445 0 2.8945-0.59766 3.75-1.7969 0.86328-1.1953 1.2969-2.9297 1.2969-5.2031 0-2.2812-0.43359-4.0195-1.2969-5.2188-0.85547-1.1953-2.1055-1.7969-3.75-1.7969-1.625 0-2.8711 0.60156-3.7344 1.7969-0.85547 1.1992-1.2812 2.9375-1.2812 5.2188 0 2.2734 0.42578 4.0078 1.2812 5.2031 0.86328 1.1992 2.1094 1.7969 3.7344 1.7969z"/>
  </symbol>
  <symbol id="e" overflow="visible">
   <path d="m16.406-4.9375c1.6328 0 2.8828-0.59766 3.75-1.7969 0.86328-1.1953 1.2969-2.9297 1.2969-5.2031 0-2.2812-0.43359-4.0195-1.2969-5.2188-0.86719-1.1953-2.1172-1.7969-3.75-1.7969-1.6367 0-2.8906 0.60547-3.7656 1.8125-0.875 1.1992-1.3125 2.9336-1.3125 5.2031 0 2.2617 0.4375 3.9961 1.3125 5.2031 0.875 1.1992 2.1289 1.7969 3.7656 1.7969zm-5.0781-15.484c1.0508-1.3945 2.2188-2.4219 3.5-3.0781 1.2812-0.66406 2.7539-1 4.4219-1 2.9453 0 5.3672 1.1719 7.2656 3.5156 1.8945 2.3438 2.8438 5.3594 2.8438 9.0469s-0.94922 6.7031-2.8438 9.0469c-1.8984 2.3438-4.3203 3.5156-7.2656 3.5156-1.668 0-3.1406-0.33594-4.4219-1s-2.4492-1.6914-3.5-3.0781v3.4531h-7.6562v-33.234h7.6562z"/>
  </symbol>
  <symbol id="a" overflow="visible">
   <path d="m0.53125-23.922h7.6562l6.4219 16.234 5.4688-16.234h7.6562l-10.062 26.188c-1.0117 2.6641-2.1953 4.5234-3.5469 5.5781-1.3438 1.0625-3.1211 1.5938-5.3281 1.5938h-4.4219v-5.0156h2.3906c1.3008 0 2.2422-0.21094 2.8281-0.625 0.59375-0.40625 1.0547-1.1484 1.3906-2.2188l0.20312-0.65625z"/>
  </symbol>
  <symbol id="d" overflow="visible">
   <path d="m4.0156-31.891h22.203v6.2188h-13.984v5.9375h13.141v6.2188h-13.141v7.2969h14.453v6.2188h-22.672z"/>
  </symbol>
  <symbol id="l" overflow="visible">
   <path d="m3.4219-9.3125v-14.609h7.6875v2.3906c0 1.293-0.011719 2.918-0.03125 4.875-0.011719 1.9609-0.015625 3.2656-0.015625 3.9219 0 1.9297 0.046875 3.3125 0.14062 4.1562 0.10156 0.84375 0.28125 1.4609 0.53125 1.8438 0.3125 0.5 0.71875 0.88672 1.2188 1.1562 0.50781 0.27344 1.0938 0.40625 1.75 0.40625 1.5938 0 2.8438-0.60938 3.75-1.8281 0.91406-1.2266 1.375-2.9297 1.375-5.1094v-11.812h7.6406v23.922h-7.6406v-3.4531c-1.1562 1.3867-2.3828 2.4141-3.6719 3.0781-1.2812 0.66406-2.6992 1-4.25 1-2.7734 0-4.8828-0.84766-6.3281-2.5469-1.4375-1.6953-2.1562-4.1602-2.1562-7.3906z"/>
  </symbol>
  <symbol id="k" overflow="visible">
   <path d="m23-23.172v6.2344c-1.0312-0.71875-2.0742-1.2422-3.125-1.5781-1.043-0.34375-2.125-0.51562-3.25-0.51562-2.1367 0-3.8047 0.625-5 1.875-1.1875 1.2422-1.7812 2.9805-1.7812 5.2188 0 2.2305 0.59375 3.9688 1.7812 5.2188 1.1953 1.25 2.8633 1.875 5 1.875 1.1953 0 2.332-0.17578 3.4062-0.53125 1.0703-0.36328 2.0625-0.89453 2.9688-1.5938v6.2656c-1.1875 0.4375-2.4023 0.76562-3.6406 0.98438-1.2305 0.22656-2.4648 0.34375-3.7031 0.34375-4.3125 0-7.6875-1.1094-10.125-3.3281s-3.6562-5.2969-3.6562-9.2344c0-3.9453 1.2188-7.0234 3.6562-9.2344 2.4375-2.2188 5.8125-3.3281 10.125-3.3281 1.25 0 2.4844 0.10938 3.7031 0.32812s2.4297 0.55469 3.6406 1z"/>
  </symbol>
  <symbol id="j" overflow="visible">
   <path d="m3.6719-33.234h7.6562v33.234h-7.6562z"/>
  </symbol>
  <symbol id="i" overflow="visible">
   <path d="m11.328-3.4531v12.547h-7.6562v-33.016h7.6562v3.5c1.0508-1.3945 2.2188-2.4219 3.5-3.0781 1.2812-0.66406 2.7539-1 4.4219-1 2.9453 0 5.3672 1.1719 7.2656 3.5156 1.8945 2.3438 2.8438 5.3594 2.8438 9.0469s-0.94922 6.7031-2.8438 9.0469c-1.8984 2.3438-4.3203 3.5156-7.2656 3.5156-1.668 0-3.1406-0.33594-4.4219-1s-2.4492-1.6914-3.5-3.0781zm5.0781-15.5c-1.6367 0-2.8906 0.60547-3.7656 1.8125-0.875 1.1992-1.3125 2.9336-1.3125 5.2031 0 2.2617 0.4375 3.9961 1.3125 5.2031 0.875 1.1992 2.1289 1.7969 3.7656 1.7969 1.6328 0 2.8828-0.59766 3.75-1.7969 0.86328-1.1953 1.2969-2.9297 1.2969-5.2031 0-2.2812-0.43359-4.0195-1.2969-5.2188-0.86719-1.1953-2.1172-1.7969-3.75-1.7969z"/>
  </symbol>
 </defs>
 <g>
  <path d="m589.63 454.61-82.129-23.684v-17.902l7.7266-5.1523c11.691-7.7969 20.047-19.207 24.219-32.191 15.934-2.6328 28.156-15.996 29.102-32.438 1.4648-4.7109 8.9531-30.812 8.9531-71.988v-12.137l-27.766 9.2578c-2.4922-11.828-9.0898-31.668-26.484-54.871l-8.4961-11.324-10.422 20.852c-5.25-3.2969-12.855-7.2969-23.082-10.973v-98.305h105c19.301 0 35-15.699 35-35s-15.699-35-35-35h-105v-35h-327.37l-75.129 75.129v432.37h245v35h297.5v-54.609c0-19.371-13.004-36.66-31.621-42.035zm-134.63-30.266c5.3984 2.8438 11.348 4.4102 17.5 4.4102s12.102-1.5664 17.5-4.4102v10.734l-17.5 29.172-17.5-29.172zm70-67.438c0 14.656-7.2891 28.262-19.484 36.398l-21.84 14.559c-6.6602 4.4258-15.707 4.4258-22.355 0l-21.84-14.559c-12.191-8.125-19.48-21.742-19.48-36.398v-38.168c0-6.8828 5.6016-12.484 12.484-12.484 1.9258 0 3.8594 0.45312 5.582 1.3125l34.434 17.219 34.414-17.211c1.7344-0.875 3.668-1.3203 5.6016-1.3203 6.8828 0 12.484 5.6016 12.484 12.484zm17.5-0.58594v-30.137c5.207 3.0352 8.75 8.6172 8.75 15.066 0 6.4531-3.543 12.035-8.75 15.07zm-32.602-105.3 7.5234-15.051c15.855 25.699 16.328 43.875 16.328 44.031v12.145l26.016-8.6719c-0.48828 12.484-1.6875 23.082-3.0195 31.605-4.6641-4.1055-10.352-7.0273-16.703-8.1914-4.6133-10.656-15.211-18.137-27.527-18.137-4.6211 0-9.25 1.0938-13.414 3.1602l-26.602 13.309-26.617-13.309c-4.1484-2.0664-8.7773-3.1602-13.398-3.1602-12.328 0-22.926 7.4805-27.527 18.141-8.2969 1.5156-15.469 6.0039-20.625 12.258-3.1953-8.8555-6.3945-20.754-7.5938-35.594l30.844 10.281-5.9844-17.945c-4.0156-12.039-6.5-24.465-7.4375-37.074l39.172 9.8008-9.8516-29.566c55.703 2.6953 77.648 23.223 77.832 23.398zm-116.15 90.23c0-6.4492 3.543-12.031 8.75-15.066v30.137c-5.207-3.0391-8.75-8.6211-8.75-15.07zm-52.5-250.41-24.184-12.094 24.184-12.094zm17.5-29.594h140v35h-140zm157.5 0h17.5v35h-17.5zm87.5 17.5c0 9.6523-7.8477 17.5-17.5 17.5h-35v-35h35c9.6523 0 17.5 7.8477 17.5 17.5zm-455-40.129v40.129h-40.129zm-52.5 460.13v-402.5h70v-70h297.5v17.5h-115.82l-70 35 70 35h115.82v93.16c-14.07-3.3242-31.395-5.6602-52.5-5.6602h-12.137l7.543 22.645-30.406-7.6016v11.207c0 13.152 1.5156 26.199 4.5078 38.945l-22.008-7.332v12.137c0 39.75 13.648 65.914 17.797 72.949 1.3633 15.996 13.387 28.891 29.008 31.473 4.1836 12.984 12.539 24.402 24.219 32.191l7.7266 5.1523v17.902l-43.75 12.617v-49.785h-280v87.5h212.93c-1.8438 4.8398-2.9297 10.02-2.9297 15.391v2.1094zm242.64-35h-207.64v-52.5h245v37.336l-20.879 6.0195c-6.2461 1.8047-11.777 5.0312-16.477 9.1445zm264.86 70h-45.324l-7.3398-36.715-17.16 3.4375 6.6484 33.277h-136.15l6.6602-33.285-17.16-3.4375-7.3516 36.723h-45.324v-37.109c0-11.621 7.8047-21.996 18.969-25.219l81.988-23.652 30.293 50.48 30.293-50.488 81.988 23.652c11.164 3.2305 18.969 13.605 18.969 25.227z"/>
  <path d="m140 166.25c14.473 0 26.25-11.777 26.25-26.25s-11.777-26.25-26.25-26.25-26.25 11.777-26.25 26.25 11.777 26.25 26.25 26.25zm0-35c4.8203 0 8.75 3.9297 8.75 8.75s-3.9297 8.75-8.75 8.75-8.75-3.9297-8.75-8.75 3.9297-8.75 8.75-8.75z"/>
  <path d="m140 236.25c14.473 0 26.25-11.777 26.25-26.25s-11.777-26.25-26.25-26.25-26.25 11.777-26.25 26.25 11.777 26.25 26.25 26.25zm0-35c4.8203 0 8.75 3.9297 8.75 8.75s-3.9297 8.75-8.75 8.75-8.75-3.9297-8.75-8.75 3.9297-8.75 8.75-8.75z"/>
  <path d="m140 306.25c14.473 0 26.25-11.777 26.25-26.25s-11.777-26.25-26.25-26.25-26.25 11.777-26.25 26.25 11.777 26.25 26.25 26.25zm0-35c4.8203 0 8.75 3.9297 8.75 8.75s-3.9297 8.75-8.75 8.75-8.75-3.9297-8.75-8.75 3.9297-8.75 8.75-8.75z"/>
  <path d="m140 376.25c14.473 0 26.25-11.777 26.25-26.25s-11.777-26.25-26.25-26.25-26.25 11.777-26.25 26.25 11.777 26.25 26.25 26.25zm0-35c4.8203 0 8.75 3.9219 8.75 8.75s-3.9297 8.75-8.75 8.75-8.75-3.9219-8.75-8.75 3.9297-8.75 8.75-8.75z"/>
  <path d="m210 166.25c14.473 0 26.25-11.777 26.25-26.25s-11.777-26.25-26.25-26.25-26.25 11.777-26.25 26.25 11.777 26.25 26.25 26.25zm0-35c4.8203 0 8.75 3.9297 8.75 8.75s-3.9297 8.75-8.75 8.75-8.75-3.9297-8.75-8.75 3.9297-8.75 8.75-8.75z"/>
  <path d="m210 236.25c14.473 0 26.25-11.777 26.25-26.25s-11.777-26.25-26.25-26.25-26.25 11.777-26.25 26.25 11.777 26.25 26.25 26.25zm0-35c4.8203 0 8.75 3.9297 8.75 8.75s-3.9297 8.75-8.75 8.75-8.75-3.9297-8.75-8.75 3.9297-8.75 8.75-8.75z"/>
  <path d="m210 306.25c14.473 0 26.25-11.777 26.25-26.25s-11.777-26.25-26.25-26.25-26.25 11.777-26.25 26.25 11.777 26.25 26.25 26.25zm0-35c4.8203 0 8.75 3.9297 8.75 8.75s-3.9297 8.75-8.75 8.75-8.75-3.9297-8.75-8.75 3.9297-8.75 8.75-8.75z"/>
  <path d="m210 376.25c14.473 0 26.25-11.777 26.25-26.25s-11.777-26.25-26.25-26.25-26.25 11.777-26.25 26.25 11.777 26.25 26.25 26.25zm0-35c4.8203 0 8.75 3.9219 8.75 8.75s-3.9297 8.75-8.75 8.75-8.75-3.9219-8.75-8.75 3.9297-8.75 8.75-8.75z"/>
  <path d="m280 166.25c14.473 0 26.25-11.777 26.25-26.25s-11.777-26.25-26.25-26.25-26.25 11.777-26.25 26.25 11.777 26.25 26.25 26.25zm0-35c4.8203 0 8.75 3.9297 8.75 8.75s-3.9297 8.75-8.75 8.75-8.75-3.9297-8.75-8.75 3.9297-8.75 8.75-8.75z"/>
  <path d="m280 183.75c-14.473 0-26.25 11.777-26.25 26.25s11.777 26.25 26.25 26.25 26.25-11.777 26.25-26.25-11.777-26.25-26.25-26.25zm0 35c-4.8203 0-8.75-3.9297-8.75-8.75s3.9297-8.75 8.75-8.75 8.75 3.9297 8.75 8.75-3.9297 8.75-8.75 8.75z"/>
  <path d="m280 253.75c-14.473 0-26.25 11.777-26.25 26.25s11.777 26.25 26.25 26.25 26.25-11.777 26.25-26.25-11.777-26.25-26.25-26.25zm0 35c-4.8203 0-8.75-3.9297-8.75-8.75s3.9297-8.75 8.75-8.75 8.75 3.9297 8.75 8.75-3.9297 8.75-8.75 8.75z"/>
  <path d="m280 323.75c-14.473 0-26.25 11.777-26.25 26.25s11.777 26.25 26.25 26.25 26.25-11.777 26.25-26.25-11.777-26.25-26.25-26.25zm0 35c-4.8203 0-8.75-3.9219-8.75-8.75s3.9297-8.75 8.75-8.75 8.75 3.9219 8.75 8.75-3.9297 8.75-8.75 8.75z"/>
  <path d="m148.75 428.75h17.5v17.5h-17.5z"/>
  <path d="m183.75 428.75h175v17.5h-175z"/>
  <path d="m183.75 43.75h70v17.5h-70z"/>
  <path d="m183.75 78.75h70v17.5h-70z"/>
  <use x="70" y="691.25" xlink:href="#m"/>
  <use x="102.109375" y="691.25" xlink:href="#h"/>
  <use x="123.683594" y="691.25" xlink:href="#c"/>
  <use x="153.355469" y="691.25" xlink:href="#b"/>
  <use x="182.878906" y="691.25" xlink:href="#g"/>
  <use x="203.792969" y="691.25" xlink:href="#c"/>
  <use x="233.464844" y="691.25" xlink:href="#f"/>
  <use x="280.011719" y="691.25" xlink:href="#e"/>
  <use x="311.328125" y="691.25" xlink:href="#a"/>
  <use x="355.078125" y="691.25" xlink:href="#d"/>
  <use x="384.964844" y="691.25" xlink:href="#l"/>
  <use x="416.113281" y="691.25" xlink:href="#k"/>
  <use x="442.046875" y="691.25" xlink:href="#b"/>
  <use x="471.570312" y="691.25" xlink:href="#j"/>
  <use x="486.566406" y="691.25" xlink:href="#a"/>
  <use x="515.082031" y="691.25" xlink:href="#i"/>
 </g>
</svg>
